<svg xmlns="http://www.w3.org/2000/svg" xmlns:xlink="http://www.w3.org/1999/xlink" width="300" zoomAndPan="magnify" viewBox="0 0 224.87999 225" height="300" preserveAspectRatio="xMidYMid meet" version="1.0"><defs><g/><clipPath id="5938ea7684"><path d="M 40 149 L 53 149 L 53 158.726562 L 40 158.726562 Z M 40 149 " clip-rule="nonzero"/></clipPath><clipPath id="eb8c74e13f"><path d="M 88 149 L 101 149 L 101 158.726562 L 88 158.726562 Z M 88 149 " clip-rule="nonzero"/></clipPath><clipPath id="c86cb632c8"><path d="M 31 69.523438 L 109 69.523438 L 109 147 L 31 147 Z M 31 69.523438 " clip-rule="nonzero"/></clipPath><clipPath id="339aafdb94"><path d="M 22.488281 92 L 29 92 L 29 114 L 22.488281 114 Z M 22.488281 92 " clip-rule="nonzero"/></clipPath><clipPath id="62e40b33ae"><path d="M 111 92 L 117.6875 92 L 117.6875 114 L 111 114 Z M 111 92 " clip-rule="nonzero"/></clipPath><clipPath id="21d471940a"><path d="M 29 173.582031 L 206 173.582031 L 206 185.578125 L 29 185.578125 Z M 29 173.582031 " clip-rule="nonzero"/></clipPath></defs><g clip-path="url(#5938ea7684)"><path fill="#2563eb" d="M 40.191406 149.53125 L 40.191406 154.675781 C 40.191406 156.863281 41.960938 158.636719 44.144531 158.636719 L 48.101562 158.636719 C 50.285156 158.636719 52.058594 156.863281 52.058594 154.675781 L 52.058594 149.53125 Z M 40.191406 149.53125 " fill-opacity="1" fill-rule="nonzero"/></g><g clip-path="url(#eb8c74e13f)"><path fill="#2563eb" d="M 88.15625 149.53125 L 88.15625 154.675781 C 88.15625 156.863281 89.925781 158.636719 92.109375 158.636719 L 96.066406 158.636719 C 98.25 158.636719 100.023438 156.863281 100.023438 154.675781 L 100.023438 149.53125 Z M 88.15625 149.53125 " fill-opacity="1" fill-rule="nonzero"/></g><g clip-path="url(#c86cb632c8)"><path fill="#2563eb" d="M 94.652344 69.578125 L 45.558594 69.578125 C 37.8125 69.578125 31.535156 75.859375 31.535156 83.613281 L 31.535156 141.492188 C 31.535156 144.328125 33.835938 146.628906 36.667969 146.628906 L 103.546875 146.628906 C 106.378906 146.628906 108.675781 144.328125 108.675781 141.492188 L 108.675781 83.613281 C 108.675781 75.859375 102.398438 69.578125 94.652344 69.578125 Z M 44.0625 136.996094 C 41.078125 136.996094 38.65625 134.574219 38.65625 131.585938 C 38.65625 128.597656 41.078125 126.175781 44.0625 126.175781 C 47.046875 126.175781 49.46875 128.597656 49.46875 131.585938 C 49.46875 134.574219 47.046875 136.996094 44.0625 136.996094 Z M 86.894531 136.75 L 55.246094 136.75 C 54.21875 136.75 53.382812 135.914062 53.382812 134.882812 C 53.382812 133.851562 54.21875 133.015625 55.246094 133.015625 L 86.894531 133.015625 C 87.925781 133.015625 88.761719 133.851562 88.761719 134.882812 C 88.761719 135.914062 87.925781 136.75 86.894531 136.75 Z M 86.894531 130.152344 L 55.246094 130.152344 C 54.21875 130.152344 53.382812 129.316406 53.382812 128.285156 C 53.382812 127.253906 54.21875 126.417969 55.246094 126.417969 L 86.894531 126.417969 C 87.925781 126.417969 88.761719 127.253906 88.761719 128.285156 C 88.761719 129.316406 87.925781 130.152344 86.894531 130.152344 Z M 96.148438 136.996094 C 93.164062 136.996094 90.742188 134.574219 90.742188 131.585938 C 90.742188 128.597656 93.164062 126.175781 96.148438 126.175781 C 99.136719 126.175781 101.554688 128.597656 101.554688 131.585938 C 101.554688 134.574219 99.136719 136.996094 96.148438 136.996094 Z M 101.554688 106.617188 C 101.554688 111.878906 97.292969 116.144531 92.035156 116.144531 L 48.179688 116.144531 C 42.917969 116.144531 38.65625 111.878906 38.65625 106.617188 L 38.65625 85.828125 C 38.65625 80.566406 42.917969 76.300781 48.179688 76.300781 L 92.035156 76.300781 C 97.292969 76.300781 101.554688 80.566406 101.554688 85.828125 Z M 101.554688 106.617188 " fill-opacity="1" fill-rule="nonzero"/></g><path fill="#2563eb" d="M 78.46875 113.242188 C 78.574219 110.3125 80.972656 107.96875 83.929688 107.96875 C 86.882812 107.96875 89.28125 110.3125 89.386719 113.242188 L 93.351562 113.242188 C 93.246094 108.125 89.070312 104.007812 83.929688 104.007812 C 78.789062 104.007812 74.609375 108.125 74.503906 113.242188 Z M 78.46875 113.242188 " fill-opacity="1" fill-rule="nonzero"/><g clip-path="url(#339aafdb94)"><path fill="#2563eb" d="M 28.964844 110.011719 C 28.964844 111.796875 27.519531 113.242188 25.734375 113.242188 C 23.949219 113.242188 22.503906 111.796875 22.503906 110.011719 L 22.503906 95.363281 C 22.503906 93.578125 23.949219 92.132812 25.734375 92.132812 C 27.519531 92.132812 28.964844 93.578125 28.964844 95.363281 Z M 28.964844 110.011719 " fill-opacity="1" fill-rule="nonzero"/></g><g clip-path="url(#62e40b33ae)"><path fill="#2563eb" d="M 117.710938 110.011719 C 117.710938 111.796875 116.261719 113.242188 114.480469 113.242188 C 112.695312 113.242188 111.246094 111.796875 111.246094 110.011719 L 111.246094 95.363281 C 111.246094 93.578125 112.695312 92.132812 114.480469 92.132812 C 116.261719 92.132812 117.710938 93.578125 117.710938 95.363281 Z M 117.710938 110.011719 " fill-opacity="1" fill-rule="nonzero"/></g><g clip-path="url(#21d471940a)"><path fill="#2563eb" d="M 200.070312 173.582031 L 35.273438 173.582031 C 32.023438 173.582031 29.386719 176.269531 29.386719 179.578125 C 29.386719 182.890625 32.023438 185.578125 35.273438 185.578125 L 200.070312 185.578125 C 203.320312 185.578125 205.953125 182.890625 205.953125 179.578125 C 205.953125 176.269531 203.320312 173.582031 200.070312 173.582031 Z M 200.070312 173.582031 " fill-opacity="1" fill-rule="nonzero"/></g><g fill="#ffffff" fill-opacity="1"><g transform="translate(137.717015, 99.747777)"><g><path d="M 9.53125 -19.703125 C 10.90625 -19.703125 12.109375 -19.421875 13.140625 -18.859375 C 14.171875 -18.304688 14.96875 -17.578125 15.53125 -16.671875 L 15.53125 -19.421875 L 21.484375 -19.421875 L 21.484375 -0.03125 C 21.484375 1.75 21.128906 3.363281 20.421875 4.8125 C 19.710938 6.269531 18.628906 7.425781 17.171875 8.28125 C 15.722656 9.144531 13.921875 9.578125 11.765625 9.578125 C 8.890625 9.578125 6.554688 8.894531 4.765625 7.53125 C 2.984375 6.175781 1.960938 4.335938 1.703125 2.015625 L 7.59375 2.015625 C 7.78125 2.765625 8.21875 3.351562 8.90625 3.78125 C 9.601562 4.207031 10.460938 4.421875 11.484375 4.421875 C 12.710938 4.421875 13.691406 4.066406 14.421875 3.359375 C 15.160156 2.648438 15.53125 1.519531 15.53125 -0.03125 L 15.53125 -2.78125 C 14.945312 -1.875 14.144531 -1.132812 13.125 -0.5625 C 12.101562 0 10.90625 0.28125 9.53125 0.28125 C 7.9375 0.28125 6.488281 -0.128906 5.1875 -0.953125 C 3.882812 -1.773438 2.851562 -2.945312 2.09375 -4.46875 C 1.34375 -5.988281 0.96875 -7.75 0.96875 -9.75 C 0.96875 -11.738281 1.34375 -13.488281 2.09375 -15 C 2.851562 -16.507812 3.882812 -17.671875 5.1875 -18.484375 C 6.488281 -19.296875 7.9375 -19.703125 9.53125 -19.703125 Z M 15.53125 -9.71875 C 15.53125 -11.195312 15.113281 -12.363281 14.28125 -13.21875 C 13.457031 -14.082031 12.457031 -14.515625 11.28125 -14.515625 C 10.09375 -14.515625 9.085938 -14.085938 8.265625 -13.234375 C 7.441406 -12.390625 7.03125 -11.226562 7.03125 -9.75 C 7.03125 -8.257812 7.441406 -7.078125 8.265625 -6.203125 C 9.085938 -5.335938 10.09375 -4.90625 11.28125 -4.90625 C 12.457031 -4.90625 13.457031 -5.332031 14.28125 -6.1875 C 15.113281 -7.050781 15.53125 -8.226562 15.53125 -9.71875 Z M 15.53125 -9.71875 "/></g></g></g><g fill="#ffffff" fill-opacity="1"><g transform="translate(161.348181, 99.747777)"><g><path d="M 0.96875 -9.75 C 0.96875 -11.738281 1.34375 -13.488281 2.09375 -15 C 2.851562 -16.507812 3.882812 -17.671875 5.1875 -18.484375 C 6.488281 -19.296875 7.9375 -19.703125 9.53125 -19.703125 C 10.90625 -19.703125 12.109375 -19.421875 13.140625 -18.859375 C 14.171875 -18.304688 14.96875 -17.578125 15.53125 -16.671875 L 15.53125 -19.421875 L 21.484375 -19.421875 L 21.484375 0 L 15.53125 0 L 15.53125 -2.75 C 14.945312 -1.84375 14.140625 -1.109375 13.109375 -0.546875 C 12.078125 0.00390625 10.875 0.28125 9.5 0.28125 C 7.925781 0.28125 6.488281 -0.128906 5.1875 -0.953125 C 3.882812 -1.773438 2.851562 -2.945312 2.09375 -4.46875 C 1.34375 -5.988281 0.96875 -7.75 0.96875 -9.75 Z M 15.53125 -9.71875 C 15.53125 -11.195312 15.113281 -12.363281 14.28125 -13.21875 C 13.457031 -14.082031 12.457031 -14.515625 11.28125 -14.515625 C 10.09375 -14.515625 9.085938 -14.085938 8.265625 -13.234375 C 7.441406 -12.390625 7.03125 -11.226562 7.03125 -9.75 C 7.03125 -8.257812 7.441406 -7.078125 8.265625 -6.203125 C 9.085938 -5.335938 10.09375 -4.90625 11.28125 -4.90625 C 12.457031 -4.90625 13.457031 -5.332031 14.28125 -6.1875 C 15.113281 -7.050781 15.53125 -8.226562 15.53125 -9.71875 Z M 15.53125 -9.71875 "/></g></g></g><g fill="#ffffff" fill-opacity="1"><g transform="translate(128.099708, 148.206253)"><g><path d="M 8.109375 -16.671875 C 8.671875 -17.578125 9.472656 -18.304688 10.515625 -18.859375 C 11.554688 -19.421875 12.75 -19.703125 14.09375 -19.703125 C 15.695312 -19.703125 17.148438 -19.296875 18.453125 -18.484375 C 19.753906 -17.671875 20.78125 -16.507812 21.53125 -15 C 22.28125 -13.488281 22.65625 -11.738281 22.65625 -9.75 C 22.65625 -7.75 22.28125 -5.988281 21.53125 -4.46875 C 20.78125 -2.945312 19.753906 -1.773438 18.453125 -0.953125 C 17.148438 -0.128906 15.695312 0.28125 14.09375 0.28125 C 12.726562 0.28125 11.535156 0.0078125 10.515625 -0.53125 C 9.492188 -1.082031 8.691406 -1.8125 8.109375 -2.71875 L 8.109375 0 L 2.15625 0 L 2.15625 -25.765625 L 8.109375 -25.765625 Z M 16.609375 -9.75 C 16.609375 -11.226562 16.195312 -12.390625 15.375 -13.234375 C 14.550781 -14.085938 13.535156 -14.515625 12.328125 -14.515625 C 11.140625 -14.515625 10.132812 -14.082031 9.3125 -13.21875 C 8.488281 -12.363281 8.078125 -11.195312 8.078125 -9.71875 C 8.078125 -8.226562 8.488281 -7.050781 9.3125 -6.1875 C 10.132812 -5.332031 11.140625 -4.90625 12.328125 -4.90625 C 13.503906 -4.90625 14.507812 -5.335938 15.34375 -6.203125 C 16.1875 -7.078125 16.609375 -8.257812 16.609375 -9.75 Z M 16.609375 -9.75 "/></g></g></g><g fill="#ffffff" fill-opacity="1"><g transform="translate(151.730874, 148.206253)"><g><path d="M 21.34375 -19.421875 L 21.34375 0 L 15.390625 0 L 15.390625 -2.640625 C 14.785156 -1.785156 13.96875 -1.097656 12.9375 -0.578125 C 11.90625 -0.0546875 10.757812 0.203125 9.5 0.203125 C 8.019531 0.203125 6.707031 -0.125 5.5625 -0.78125 C 4.425781 -1.445312 3.546875 -2.40625 2.921875 -3.65625 C 2.296875 -4.90625 1.984375 -6.378906 1.984375 -8.078125 L 1.984375 -19.421875 L 7.90625 -19.421875 L 7.90625 -8.875 C 7.90625 -7.570312 8.238281 -6.5625 8.90625 -5.84375 C 9.582031 -5.125 10.488281 -4.765625 11.625 -4.765625 C 12.789062 -4.765625 13.707031 -5.125 14.375 -5.84375 C 15.050781 -6.5625 15.390625 -7.570312 15.390625 -8.875 L 15.390625 -19.421875 Z M 21.34375 -19.421875 "/></g></g></g><g fill="#ffffff" fill-opacity="1"><g transform="translate(175.18803, 148.206253)"><g><path d="M 10.0625 0.28125 C 8.363281 0.28125 6.851562 -0.0078125 5.53125 -0.59375 C 4.207031 -1.175781 3.160156 -1.96875 2.390625 -2.96875 C 1.628906 -3.976562 1.203125 -5.113281 1.109375 -6.375 L 7 -6.375 C 7.070312 -5.695312 7.382812 -5.148438 7.9375 -4.734375 C 8.488281 -4.316406 9.171875 -4.109375 9.984375 -4.109375 C 10.734375 -4.109375 11.3125 -4.253906 11.71875 -4.546875 C 12.125 -4.835938 12.328125 -5.210938 12.328125 -5.671875 C 12.328125 -6.234375 12.035156 -6.644531 11.453125 -6.90625 C 10.867188 -7.175781 9.929688 -7.472656 8.640625 -7.796875 C 7.242188 -8.117188 6.082031 -8.457031 5.15625 -8.8125 C 4.226562 -9.175781 3.425781 -9.75 2.75 -10.53125 C 2.070312 -11.3125 1.734375 -12.363281 1.734375 -13.6875 C 1.734375 -14.800781 2.039062 -15.816406 2.65625 -16.734375 C 3.269531 -17.648438 4.175781 -18.375 5.375 -18.90625 C 6.570312 -19.4375 7.992188 -19.703125 9.640625 -19.703125 C 12.078125 -19.703125 14 -19.097656 15.40625 -17.890625 C 16.8125 -16.679688 17.617188 -15.082031 17.828125 -13.09375 L 12.328125 -13.09375 C 12.234375 -13.757812 11.9375 -14.289062 11.4375 -14.6875 C 10.9375 -15.082031 10.28125 -15.28125 9.46875 -15.28125 C 8.769531 -15.28125 8.234375 -15.144531 7.859375 -14.875 C 7.492188 -14.613281 7.3125 -14.25 7.3125 -13.78125 C 7.3125 -13.226562 7.609375 -12.8125 8.203125 -12.53125 C 8.796875 -12.25 9.71875 -11.972656 10.96875 -11.703125 C 12.40625 -11.328125 13.578125 -10.957031 14.484375 -10.59375 C 15.390625 -10.238281 16.179688 -9.660156 16.859375 -8.859375 C 17.546875 -8.054688 17.898438 -6.984375 17.921875 -5.640625 C 17.921875 -4.503906 17.601562 -3.488281 16.96875 -2.59375 C 16.332031 -1.695312 15.414062 -0.992188 14.21875 -0.484375 C 13.019531 0.0234375 11.632812 0.28125 10.0625 0.28125 Z M 10.0625 0.28125 "/></g></g></g></svg>